<svg xmlns="http://www.w3.org/2000/svg" viewBox="0 0 200 180" fill="none" stroke="#9B8644" stroke-width="3" stroke-linecap="round" stroke-linejoin="round">
  <!-- Central arch -->
  <path d="M100 95 Q100 55 70 45 Q55 40 50 55 Q45 70 60 80 L100 95 L140 80 Q155 70 150 55 Q145 40 130 45 Q100 55 100 95Z" fill="none"/>
  <!-- Left tower -->
  <path d="M35 130 L35 50 Q35 30 50 25 L60 22 L60 45" fill="none"/>
  <path d="M50 130 L50 55" fill="none"/>
  <path d="M35 70 L50 65" fill="none"/>
  <path d="M35 90 L50 85" fill="none"/>
  <path d="M35 110 L50 105" fill="none"/>
  <!-- Right tower -->
  <path d="M165 130 L165 50 Q165 30 150 25 L140 22 L140 45" fill="none"/>
  <path d="M150 130 L150 55" fill="none"/>
  <path d="M165 70 L150 65" fill="none"/>
  <path d="M165 90 L150 85" fill="none"/>
  <path d="M165 110 L150 105" fill="none"/>
  <!-- Left wing top -->
  <path d="M60 45 L35 50" fill="none"/>
  <path d="M50 25 L75 20 Q90 18 100 30" fill="none"/>
  <!-- Right wing top -->
  <path d="M140 45 L165 50" fill="none"/>
  <path d="M150 25 L125 20 Q110 18 100 30" fill="none"/>
  <!-- Cross beams -->
  <path d="M60 80 L50 130" fill="none"/>
  <path d="M140 80 L150 130" fill="none"/>
  <!-- Diamond decorations left -->
  <path d="M42 58 L47 53 L52 58 L47 63Z" fill="none"/>
  <!-- Diamond decorations right -->
  <path d="M148 58 L153 53 L158 58 L153 63Z" fill="none"/>
  <!-- Trefoil left -->
  <circle cx="43" cy="80" r="4" fill="none"/>
  <circle cx="38" cy="86" r="4" fill="none"/>
  <circle cx="48" cy="86" r="4" fill="none"/>
  <!-- Trefoil right -->
  <circle cx="157" cy="80" r="4" fill="none"/>
  <circle cx="152" cy="86" r="4" fill="none"/>
  <circle cx="162" cy="86" r="4" fill="none"/>
  <!-- Inner arch detail -->
  <path d="M75 95 Q100 70 125 95" fill="none" stroke-width="2"/>
  <!-- Base line -->
  <path d="M30 130 L170 130" fill="none" stroke-width="2"/>
  <!-- Center keystone -->
  <path d="M95 30 L100 22 L105 30" fill="none" stroke-width="2"/>
  <!-- Lattice left panel -->
  <path d="M38 95 L48 100" fill="none" stroke-width="1.5"/>
  <path d="M48 95 L38 100" fill="none" stroke-width="1.5"/>
  <path d="M38 105 L48 110" fill="none" stroke-width="1.5"/>
  <path d="M48 105 L38 110" fill="none" stroke-width="1.5"/>
  <!-- Lattice right panel -->
  <path d="M152 95 L162 100" fill="none" stroke-width="1.5"/>
  <path d="M162 95 L152 100" fill="none" stroke-width="1.5"/>
  <path d="M152 105 L162 110" fill="none" stroke-width="1.5"/>
  <path d="M162 105 L152 110" fill="none" stroke-width="1.5"/>
</svg>